# Blender v2.77 (sub 0) OBJ File: ''
# www.blender.org
mtllib test.mtl
o Cube
v 1.000000 -1.000000 -1.000000
v 1.000000 -1.000000 1.000000
v -1.000000 -1.000000 1.000000
v -1.000000 -1.000000 -1.000000
v 1.000000 1.000000 -0.999999
v 0.999999 1.000000 1.000001
v -1.000000 1.000000 1.000000
v -1.000000 1.000000 -1.000000
v 1.000000 2.482205 -0.999999
v 0.999999 2.482205 1.000001
v -1.000000 2.482205 -1.000000
v -1.000000 2.482205 1.000000
v 2.357621 1.000000 -0.999999
v 2.357620 1.000000 1.000001
v 2.357621 2.482205 -0.999999
v 2.357620 2.482205 1.000001
v 0.999999 1.000000 2.424510
v 0.999999 2.482205 2.424510
v 2.357619 1.000000 2.424511
v 2.357619 2.482205 2.424511
v 2.357620 4.090405 1.000001
v 0.999999 4.090405 1.000001
v 2.357619 4.090405 2.424511
v 0.999999 4.090405 2.424510
v 2.357620 5.255906 1.000001
v 0.999999 5.255906 1.000001
v 2.357619 5.255906 2.424511
v 0.999999 5.255906 2.424510
v 2.357623 4.090405 -5.245975
v 1.000002 4.090405 -5.245976
v 2.357623 5.255906 -5.245975
v 1.000002 5.255906 -5.245976
v 2.357623 4.090405 -6.284832
v 1.000003 4.090405 -6.284833
v 2.357623 5.255906 -6.284832
v 1.000003 5.255906 -6.284833
v 3.584706 5.255906 -5.245975
v 3.584706 4.090405 -5.245975
v 3.584707 5.255906 -6.284832
v 3.584707 4.090405 -6.284832
v 4.705661 5.255906 -5.245974
v 4.705661 4.090405 -5.245974
v 4.705661 5.255906 -6.284831
v 4.705661 4.090405 -6.284831
v 3.584705 5.255906 -2.657103
v 3.584705 4.090405 -2.657103
v 4.705659 5.255906 -2.657102
v 4.705659 4.090405 -2.657102
v 3.584704 5.255906 -1.485039
v 3.584704 4.090405 -1.485039
v 4.705659 5.255906 -1.485038
v 4.705659 4.090405 -1.485038
v 3.584705 6.391733 -2.657103
v 4.705659 6.391733 -2.657102
v 3.584704 6.391733 -1.485039
v 4.705659 6.391733 -1.485038
v 3.584705 7.453012 -2.657103
v 4.705659 7.453012 -2.657102
v 3.584704 7.453012 -1.485039
v 4.705659 7.453012 -1.485038
v -1.836930 6.391733 -1.485041
v -1.836930 6.391733 -2.657105
v -1.836930 7.453012 -1.485041
v -1.836930 7.453012 -2.657105
v -2.785861 6.391733 -1.485042
v -2.785860 6.391733 -2.657106
v -2.785861 7.453012 -1.485042
v -2.785860 7.453012 -2.657106
v -1.836932 6.391733 0.739896
v -1.836932 7.453012 0.739896
v -2.785863 6.391733 0.739896
v -2.785863 7.453012 0.739896
v 2.357620 6.475676 1.000001
v 0.999999 6.475676 1.000001
v 2.357619 6.475676 2.424511
v 0.999999 6.475676 2.424510
v 2.357620 7.452520 1.000001
v 0.999999 7.452520 1.000001
v 2.357619 7.452520 2.424511
v 0.999999 7.452520 2.424510
v -1.843957 6.475676 2.424509
v -1.843956 6.475676 0.999999
v -1.843957 7.452520 2.424509
v -1.843956 7.452520 0.999999
v -2.797272 6.475676 2.424508
v -2.797272 6.475676 0.999998
v -2.797272 7.452520 2.424508
v -2.797272 7.452520 0.999998
vn 0.0000 -1.0000 0.0000
vn -0.0000 0.0000 1.0000
vn 1.0000 0.0000 0.0000
vn -1.0000 -0.0000 -0.0000
vn 0.0000 0.0000 -1.0000
vn 0.0000 1.0000 -0.0000
vn -0.0000 1.0000 0.0019
vn -0.9990 0.0000 -0.0438
vn -0.0000 -0.9517 0.3071
vn 0.9996 0.0000 0.0270
usemtl Material
s off
f 1//1 2//1 3//1 4//1
f 7//2 6//2 10//2 12//2
f 1//3 5//3 6//3 2//3
f 2//2 6//2 7//2 3//2
f 3//4 7//4 8//4 4//4
f 5//5 1//5 4//5 8//5
f 9//6 11//6 12//6 10//6
f 5//5 9//5 15//5 13//5
f 8//4 7//4 12//4 11//4
f 5//5 8//5 11//5 9//5
f 14//3 13//3 15//3 16//3
f 10//4 6//4 17//4 18//4
f 9//6 10//6 16//6 15//6
f 6//1 5//1 13//1 14//1
f 18//2 17//2 19//2 20//2
f 16//5 10//5 22//5 21//5
f 6//1 14//1 19//1 17//1
f 14//3 16//3 20//3 19//3
f 22//4 24//4 28//4 26//4
f 20//3 16//3 21//3 23//3
f 10//4 18//4 24//4 22//4
f 18//2 20//2 23//2 24//2
f 27//3 25//3 73//3 75//3
f 22//4 26//4 32//4 30//4
f 23//3 21//3 25//3 27//3
f 24//2 23//2 27//2 28//2
f 30//4 32//4 36//4 34//4
f 21//1 22//1 30//1 29//1
f 25//3 21//3 29//3 31//3
f 26//6 25//6 31//6 32//6
f 33//5 34//5 36//5 35//5
f 29//1 30//1 34//1 33//1
f 35//6 31//6 37//6 39//6
f 32//6 31//6 35//6 36//6
f 39//6 37//6 41//6 43//6
f 33//5 35//5 39//5 40//5
f 31//2 29//2 38//2 37//2
f 29//1 33//1 40//1 38//1
f 41//3 42//3 44//3 43//3
f 40//5 39//5 43//5 44//5
f 38//1 40//1 44//1 42//1
f 41//6 37//6 45//6 47//6
f 45//4 46//4 50//4 49//4
f 42//3 41//3 47//3 48//3
f 38//1 42//1 48//1 46//1
f 37//4 38//4 46//4 45//4
f 49//2 50//2 52//2 51//2
f 46//1 48//1 52//1 50//1
f 48//3 47//3 51//3 52//3
f 49//2 51//2 56//2 55//2
f 53//1 55//1 61//1 62//1
f 51//3 47//3 54//3 56//3
f 47//5 45//5 53//5 54//5
f 45//4 49//4 55//4 53//4
f 58//6 57//6 59//6 60//6
f 54//5 53//5 57//5 58//5
f 56//3 54//3 58//3 60//3
f 55//2 56//2 60//2 59//2
f 63//6 64//6 68//6 67//6
f 57//5 53//5 62//5 64//5
f 55//2 59//2 63//2 61//2
f 59//6 57//6 64//6 63//6
f 66//4 65//4 67//4 68//4
f 67//4 65//4 71//4 72//4
f 62//1 61//1 65//1 66//1
f 64//5 62//5 66//5 68//5
f 70//7 72//7 88//7 84//7
f 61//3 63//3 70//3 69//3
f 63//6 67//6 72//6 70//6
f 65//1 61//1 69//1 71//1
f 80//6 78//6 84//6 83//6
f 28//2 27//2 75//2 76//2
f 26//4 28//4 76//4 74//4
f 25//5 26//5 74//5 73//5
f 77//6 78//6 80//6 79//6
f 73//5 74//5 78//5 77//5
f 75//3 73//3 77//3 79//3
f 76//2 75//2 79//2 80//2
f 71//8 86//8 88//8 72//8
f 74//1 76//1 81//1 82//1
f 78//5 74//5 82//5 84//5
f 76//2 80//2 83//2 81//2
f 86//4 85//4 87//4 88//4
f 83//6 84//6 88//6 87//6
f 81//2 83//2 87//2 85//2
f 82//1 81//1 85//1 86//1
f 71//9 69//9 82//9 86//9
f 69//10 70//10 84//10 82//10
